<?xml version="1.0" encoding="UTF-8"?>
<svg version="1.1" xmlns="http://www.w3.org/2000/svg" width="512" height="512">
<path d="M0 0 C2.67708367 2.57677141 2.3467291 5.72029677 2.41796875 9.23046875 C2.46244141 10.29007813 2.46244141 10.29007813 2.5078125 11.37109375 C2.57852232 13.11526922 2.6255091 14.86037702 2.66796875 16.60546875 C1.72695313 16.98058594 0.7859375 17.35570313 -0.18359375 17.7421875 C-12.75489852 22.85191242 -18.7164896 29.00348029 -25.33203125 40.60546875 C-25.75871094 41.32089844 -26.18539063 42.03632812 -26.625 42.7734375 C-32.0492809 52.52051697 -33.54916762 63.76006771 -31.33203125 74.60546875 C-30.51734761 77.28791175 -29.63600654 79.94332879 -28.74853516 82.60253906 C-23.60841585 98.04084254 -20.65992956 114.49780596 -27.78125 129.84375 C-34.59897386 141.98513733 -40.9693418 148.45622601 -54.33203125 152.60546875 C-55.32203125 152.93546875 -56.31203125 153.26546875 -57.33203125 153.60546875 C-50.88364909 153.18262402 -45.62732168 151.82062573 -39.6171875 149.4453125 C-37.33203125 148.60546875 -37.33203125 148.60546875 -35.33203125 148.60546875 C-35.77314251 153.45769261 -36.78581052 155.34294567 -40.33203125 158.60546875 C-29.96449558 158.46074427 -21.73799847 157.41329594 -12.33203125 152.60546875 C-11.56375 152.22261719 -10.79546875 151.83976563 -10.00390625 151.4453125 C-9.4521875 151.16816406 -8.90046875 150.89101562 -8.33203125 150.60546875 C-7.16905654 153.35431806 -7.31320154 154.54897963 -8.26953125 157.41796875 C-14.11098872 166.44567575 -22.10581298 169.9502486 -32.31640625 172.2890625 C-41.75997466 174.06278973 -50.12690725 174.18287301 -59.51953125 172.10546875 C-67.52666466 170.35081914 -75.16935215 170.3158599 -83.33203125 170.60546875 C-83.99203125 172.25546875 -84.65203125 173.90546875 -85.33203125 175.60546875 C-87.91687551 175.15462382 -90.49966415 174.69511612 -93.08203125 174.23046875 C-93.81164062 174.10414063 -94.54125 173.9778125 -95.29296875 173.84765625 C-98.96759595 173.17954221 -102.05248855 172.38028009 -105.33203125 170.60546875 C-110.38093673 170.60546875 -112.36473206 172.50147726 -115.921875 175.83984375 C-121.38640542 179.84303297 -128.08756549 182.07169993 -134.33203125 184.60546875 C-133.22106866 191.37992543 -130.25025285 197.77921252 -125.51953125 202.79296875 C-122.80493159 206.28316831 -122.90056284 208.29078462 -123.33203125 212.60546875 C-125.39453125 213.54296875 -125.39453125 213.54296875 -128.33203125 213.60546875 C-133.08443367 210.10607504 -136.79494622 205.00719741 -140.55859375 200.5 C-142.63934091 198.27717539 -144.94266049 196.48722641 -147.33203125 194.60546875 C-148.93244791 195.49711546 -150.53266303 196.38912388 -152.1328125 197.28125 C-153.1647876 197.85657471 -154.1967627 198.43189941 -155.26000977 199.0246582 C-157.52752448 200.29311212 -159.79231927 201.56643981 -162.05444336 202.84448242 C-167.40546696 205.86709686 -172.75963045 208.85197607 -178.22265625 211.66796875 C-179.54076294 212.36925903 -179.54076294 212.36925903 -180.88549805 213.0847168 C-182.52352838 213.95513459 -184.17591649 214.79919499 -185.84301758 215.61254883 C-188.00708091 216.78667083 -189.65931191 217.79867197 -191.33203125 219.60546875 C-191.82721492 223.0580942 -191.77349086 225.22730288 -191.33203125 228.60546875 C-191.15634817 230.75078662 -190.98766979 232.89668427 -190.82421875 235.04296875 C-190.72351074 236.24550293 -190.62280273 237.44803711 -190.51904297 238.68701172 C-189.40130365 252.7243482 -189.37456456 266.42504571 -190.20703125 280.48046875 C-191.71153998 306.25428483 -192.94820517 332.43433891 -190.20703125 358.16796875 C-190.11462158 359.12380859 -190.02221191 360.07964844 -189.92700195 361.06445312 C-188.93378239 368.58130372 -185.82194212 374.81354005 -179.83203125 379.60546875 C-176.06682003 382.61763772 -173.52719962 386.32599911 -171.33203125 390.60546875 C-170.95703125 394.16796875 -170.95703125 394.16796875 -171.33203125 396.60546875 C-180.09279761 401.79954085 -189.55612135 401.14933913 -199.38378906 401.01708984 C-202.22106443 400.98028672 -205.05704058 400.97607328 -207.89453125 400.9765625 C-209.70443837 400.96674007 -211.51433668 400.9550869 -213.32421875 400.94140625 C-214.16902802 400.9391806 -215.01383728 400.93695496 -215.88424683 400.93466187 C-216.67251862 400.92190216 -217.46079041 400.90914246 -218.27294922 400.89599609 C-218.96226532 400.8883725 -219.65158142 400.8807489 -220.36178589 400.87289429 C-222.33203125 400.60546875 -222.33203125 400.60546875 -224.28591919 399.59080505 C-226.77227587 398.39346228 -228.38296849 398.42646346 -231.12890625 398.54956055 C-232.07668945 398.58587082 -233.02447266 398.62218109 -234.00097656 398.65959167 C-235.01772461 398.7074733 -236.03447266 398.75535492 -237.08203125 398.8046875 C-239.2382514 398.880412 -241.39450267 398.9552549 -243.55078125 399.02929688 C-246.94850861 399.15749907 -250.34543688 399.29356859 -253.7421875 399.44555664 C-257.02173123 399.58782538 -260.30115075 399.698432 -263.58203125 399.8046875 C-265.10715332 399.88561897 -265.10715332 399.88561897 -266.66308594 399.96818542 C-273.68659748 400.16718442 -273.68659748 400.16718442 -276.9765625 397.30395508 C-278.76268075 393.74812565 -278.80827266 391.55146903 -278.33203125 387.60546875 C-277.85217773 386.53353271 -277.37232422 385.46159668 -276.87792969 384.35717773 C-271.50093251 372.21443978 -273.00495649 356.0783294 -273.08203125 343.04296875 C-273.08480072 342.12470306 -273.08757019 341.20643738 -273.09042358 340.26034546 C-271.81649141 307.67593568 -271.81649141 307.67593568 -281.33203125 277.60546875 C-281.85933838 277.86763184 -282.38664551 278.12979492 -282.92993164 278.39990234 C-285.40780228 279.61584711 -287.90057799 280.79788146 -290.39453125 281.98046875 C-291.22275391 282.39296875 -292.05097656 282.80546875 -292.90429688 283.23046875 C-305.74261332 289.23783191 -320.16241428 288.98021995 -334.08203125 289.29296875 C-334.86630493 289.31326141 -335.65057861 289.33355408 -336.45861816 289.35446167 C-348.12349118 289.65320638 -359.69751004 289.62741994 -371.33203125 288.60546875 C-371.69554687 289.73984375 -372.0590625 290.87421875 -372.43359375 292.04296875 C-372.94062507 293.5640627 -373.44848213 295.08488158 -373.95703125 296.60546875 C-374.19292969 297.34925781 -374.42882812 298.09304688 -374.671875 298.859375 C-377.96994327 308.58444811 -384.42016678 314.8811862 -391.70703125 321.85546875 C-403.67421371 333.65411733 -412.65932318 346.59653863 -414.70703125 363.74609375 C-413.58007309 372.33914969 -406.11258281 380.26219003 -400.03515625 385.96875 C-397.91082044 388.0102562 -396.44269688 389.86582687 -395.33203125 392.60546875 C-395.51953125 395.35546875 -395.51953125 395.35546875 -396.33203125 397.60546875 C-396.99203125 397.93546875 -397.65203125 398.26546875 -398.33203125 398.60546875 C-398.31140625 399.90484375 -398.29078125 401.20421875 -398.26953125 402.54296875 C-398.24803671 403.89712508 -398.26054926 405.25302958 -398.33203125 406.60546875 C-402.39990677 410.67334427 -416.46590343 409.59262371 -421.87890625 409.62988281 C-425.63673803 409.58173068 -429.38860866 409.48384716 -433.14453125 409.35546875 C-434.95884644 409.29770264 -434.95884644 409.29770264 -436.80981445 409.23876953 C-449.4539056 408.69755168 -449.4539056 408.69755168 -454.19140625 405.25390625 C-455.6713898 403.11502592 -455.67015793 401.81258054 -455.58203125 399.23046875 C-455.55625 398.42867188 -455.53046875 397.626875 -455.50390625 396.80078125 C-455.31166664 394.34535717 -454.814791 392.01926752 -454.33203125 389.60546875 C-454.09295681 385.01707853 -454.30132791 380.51134117 -454.81640625 375.94921875 C-456.55437269 358.9719484 -454.93994242 343.969796 -450.33203125 327.60546875 C-449.49011746 324.55247325 -448.65610654 321.49772781 -447.83447266 318.43920898 C-447.30787494 316.48694812 -446.76807581 314.53817896 -446.21240234 312.59399414 C-443.20128378 301.5845301 -444.40646588 292.90305715 -447.46679688 282.07617188 C-451.65507795 266.112144 -450.46224107 248.90447307 -450.39453125 232.54296875 C-450.38950137 230.40429793 -450.38494112 228.26562596 -450.38085938 226.12695312 C-450.36998278 220.95309572 -450.35280197 215.7792955 -450.33203125 210.60546875 C-452.58572745 214.15794662 -454.25018482 217.65846318 -455.75 221.5859375 C-456.19553223 222.74150146 -456.64106445 223.89706543 -457.10009766 225.08764648 C-457.56851074 226.31040283 -458.03692383 227.53315918 -458.51953125 228.79296875 C-467.17280086 251.07225166 -476.09454095 269.09697244 -492.04199219 287.1027832 C-493.20545329 288.45802603 -494.29186958 289.87849809 -495.3671875 291.3046875 C-497.52694301 293.83370538 -499.58583461 295.25953129 -502.45703125 296.91796875 C-503.32585937 297.42972656 -504.1946875 297.94148438 -505.08984375 298.46875 C-507.33203125 299.60546875 -507.33203125 299.60546875 -509.33203125 299.60546875 C-509.0957119 295.58803982 -508.82699261 293.22042074 -506.26953125 290.04296875 C-503.33203125 287.60546875 -503.33203125 287.60546875 -501.57421875 286.52734375 C-477.43817813 271.08809509 -468.17939786 226.31011708 -461.10791016 200.44042969 C-455.19013324 178.81764002 -446.03296233 160.67751775 -431.33203125 143.60546875 C-430.30142578 142.40664063 -430.30142578 142.40664063 -429.25 141.18359375 C-426.98721642 138.61434783 -424.67086128 136.1057211 -422.33203125 133.60546875 C-421.84669922 133.07550293 -421.36136719 132.54553711 -420.86132812 131.99951172 C-411.72116563 122.08067986 -401.86197508 114.56803324 -390.33203125 107.60546875 C-389.40318115 107.02974121 -389.40318115 107.02974121 -388.45556641 106.44238281 C-368.37514814 94.13233445 -344.50793742 87.16556271 -321.29263306 92.60644531 C-319.28199148 93.09499355 -317.27563992 93.59865723 -315.26953125 94.10546875 C-313.222173 94.61058872 -311.17379473 95.11062393 -309.12342834 95.60339355 C-307.28677876 96.04649746 -305.4536718 96.50421254 -303.62084961 96.96289062 C-298.91689493 97.88196187 -294.91873605 98.23973925 -290.52734375 96.14453125 C-289.86089844 95.83773437 -289.19445312 95.5309375 -288.5078125 95.21484375 C-287.49267578 94.72757813 -287.49267578 94.72757813 -286.45703125 94.23046875 C-278.3763468 90.40031774 -271.25405584 88.22074114 -262.20703125 88.29296875 C-261.44132813 88.2986084 -260.675625 88.30424805 -259.88671875 88.31005859 C-246.51864211 88.58052649 -233.41854757 90.19211795 -220.83203125 94.79296875 C-212.23524173 97.90550169 -204.19288146 99.66086222 -195.2578125 96.52734375 C-189.83069711 93.94503002 -184.84874851 90.67893811 -179.76953125 87.48046875 C-167.87618232 80.01321606 -154.37073462 76.39372775 -140.33203125 78.60546875 C-135.27684704 80.17491901 -130.74824301 82.80259825 -126.21679688 85.49414062 C-124.44268298 86.54022436 -122.63030334 87.52062021 -120.81640625 88.49609375 C-113.27188003 92.59563083 -106.35403867 97.31932407 -99.37841797 102.30566406 C-86.38531073 111.59814595 -86.38531073 111.59814595 -71.33203125 116.60546875 C-67.45432454 115.50990849 -65.42280217 112.95624069 -63.33203125 109.60546875 C-62.81181495 106.03572095 -62.81181495 106.03572095 -63.01953125 102.23046875 C-63.04402344 100.96460938 -63.06851562 99.69875 -63.09375 98.39453125 C-63.27771269 94.65194821 -63.27771269 94.65194821 -63.83203125 91.15625 C-66.89881599 69.37728648 -60.96121077 47.45467503 -48.33203125 29.48046875 C-39.26666995 17.94594289 -28.89694353 10.1645641 -15.33203125 4.60546875 C-14.19507813 4.11433594 -13.058125 3.62320313 -11.88671875 3.1171875 C-10.73429687 2.63894531 -9.581875 2.16070312 -8.39453125 1.66796875 C-7.33363281 1.22582031 -6.27273438 0.78367188 -5.1796875 0.328125 C-2.33203125 -0.39453125 -2.33203125 -0.39453125 0 0 Z M-230.33203125 316.60546875 C-230.50331543 317.84635254 -230.67459961 319.08723633 -230.85107422 320.36572266 C-231.49018731 324.98469779 -232.13680077 329.60259743 -232.78564453 334.22021484 C-233.06502551 336.21602448 -233.34239218 338.21211718 -233.61767578 340.20849609 C-234.01451406 343.08378284 -234.41866869 345.95796195 -234.82421875 348.83203125 C-234.94513885 349.71976227 -235.06605896 350.60749329 -235.19064331 351.52212524 C-235.84406873 356.09939419 -236.765719 360.23455552 -238.33203125 364.60546875 C-239.13986317 371.02406058 -237.22422671 374.11321071 -233.45703125 378.98046875 C-232.99683594 379.60824219 -232.53664063 380.23601562 -232.0625 380.8828125 C-229.65309131 384.25241985 -229.65309131 384.25241985 -226.33203125 386.60546875 C-222.86641677 375.7718832 -222.86641677 375.7718832 -224.34814453 364.74121094 C-225.36767176 361.49187901 -225.51018994 359.13130844 -225.38671875 355.74609375 C-225.35964844 354.63790283 -225.33257812 353.52971191 -225.3046875 352.38793945 C-225.27246094 351.22222412 -225.24023438 350.05650879 -225.20703125 348.85546875 C-225.0237539 337.53121957 -226.15486593 327.45605567 -229.33203125 316.60546875 C-229.66203125 316.60546875 -229.99203125 316.60546875 -230.33203125 316.60546875 Z " fill="#000000" transform="translate(509.33203125,51.39453125)"/>
</svg>
