<?xml version="1.0" encoding="UTF-8"?>
<svg version="1.1" xmlns="http://www.w3.org/2000/svg" width="512" height="512">
<path d="M0 0 C19.16923074 4.41843024 38.25036503 5.54044861 57.84472656 6.65356445 C85.48004522 8.23857138 103.66927701 10.98930553 123.19238281 31.68286133 C142.68281705 50.98898886 178.50324926 53.33478608 204.64151001 53.31866455 C210.64410535 53.28969379 216.63147144 53.18437666 222.62988281 52.93286133 C223.63188721 52.89781494 224.6338916 52.86276855 225.66625977 52.82666016 C229.61738819 52.58359764 231.98490983 52.35942088 235.32910156 50.14770508 C235.98523438 49.39618164 236.64136719 48.6446582 237.31738281 47.87036133 C238.06375 47.05180664 238.81011719 46.23325195 239.57910156 45.38989258 C240.79692804 43.93082048 241.99538087 42.45461323 243.14941406 40.94458008 C247.66862419 35.18527008 253.20246646 31.82568408 259.35375977 28.01733398 C264.21788056 24.96920134 268.16626111 21.76085304 272.07519531 17.53051758 C274.37757868 15.16450049 276.49421739 13.93360561 279.62988281 12.93286133 C284.42846538 12.93286133 287.51258825 13.93988688 291.09082031 17.20239258 C293.68632712 20.12069084 295.79946706 23.35442573 297.91894531 26.62817383 C299.7648786 29.11470497 300.94400059 30.38582582 303.62988281 31.93286133 C306.45358993 32.25767201 309.06934969 32.42102938 311.89550781 32.44458008 C312.68890564 32.46253128 313.48230347 32.48048248 314.29974365 32.49897766 C316.82640313 32.55303059 319.35287426 32.58695945 321.87988281 32.62036133 C323.59605483 32.65353893 325.312202 32.688029 327.02832031 32.72387695 C331.22870513 32.80875388 335.42903459 32.87558854 339.62988281 32.93286133 C341.75997819 37.19305207 341.08721526 41.46230097 339.72363281 45.84692383 C334.28707342 59.612571 324.19817613 68.54346782 313.79125977 78.6550293 C298.06538321 93.15546849 298.06538321 93.15546849 291.23788452 112.62284851 C291.21466158 114.43398209 291.20751012 116.24536768 291.21337891 118.05664062 C291.20479921 119.05475014 291.19621952 120.05285965 291.18737984 121.0812149 C291.16228998 124.38990805 291.1579415 127.6983003 291.15332031 131.00708008 C291.13888042 133.34720238 291.12302388 135.68731632 291.10583496 138.02742004 C291.06346946 144.27130453 291.03848889 150.51513372 291.01821136 156.75912476 C290.98285254 167.00245605 290.92601053 177.24570901 290.86932755 187.48894119 C290.85552349 190.02325709 290.84240931 192.55757684 290.82998276 195.09189987 C290.75775086 209.45936919 290.61030041 223.81342373 290.11353683 238.17298317 C290.03795299 240.3682764 289.96774946 242.56367418 289.89932251 244.75920105 C289.70084237 251.03515956 289.46118443 257.30502277 289.14306641 263.57617188 C288.36662539 273.6220589 288.36662539 273.6220589 291.43334961 282.86181641 C293.71905624 284.8859566 296.02125082 286.36136402 298.62988281 287.93286133 C300.87498504 290.33373329 302.77116949 292.9561502 304.69238281 295.62036133 C305.19624512 296.30735107 305.70010742 296.99434082 306.21923828 297.70214844 C318.94905144 315.26701814 318.94905144 315.26701814 320.62988281 323.93286133 C319.52081971 327.13550345 317.35282353 328.97845154 314.62988281 330.93286133 C311.04866156 332.4044386 307.41592347 333.16389835 303.62988281 333.93286133 C301.48157139 334.44337683 299.33566338 334.96412084 297.19238281 335.49536133 C296.22429687 335.72352539 295.25621094 335.95168945 294.25878906 336.18676758 C290.76383374 337.17620529 290.76383374 337.17620529 287.62988281 338.93286133 C286.54074691 341.12711766 286.54074691 341.12711766 285.62988281 343.93286133 C277.32665307 362.55179043 277.32665307 362.55179043 267.62988281 366.93286133 C265.85078271 367.75829966 264.07208244 368.58479054 262.30249023 369.43041992 C260.53722566 370.26312249 258.74993864 371.04866181 256.96191406 371.83129883 C250.23885342 376.07163485 246.79705854 382.92871365 243.56738281 389.99536133 C243.19943604 390.78338135 242.83148926 391.57140137 242.45239258 392.38330078 C238.470638 401.0425008 234.86911678 409.86616326 231.21795654 418.66809082 C215.62042713 456.22617501 215.62042713 456.22617501 201.80175781 468.01879883 C198.24383456 471.15437868 194.94204377 474.54141992 191.62988281 477.93286133 C187.89066152 476.35155513 185.33338544 474.00055735 182.37988281 471.24536133 C179.1417277 468.24806517 175.90059729 465.26231523 172.56738281 462.37036133 C169.61280284 459.80612221 166.71027597 457.19148576 163.81738281 454.55786133 C160.44047299 451.50427266 156.99771149 448.58856928 153.44238281 445.74536133 C148.11461044 441.4424504 143.16503539 436.80597054 138.19555664 432.10180664 C133.69092273 427.86038941 129.07211682 423.90139973 124.19238281 420.09301758 C123.34675781 419.38016602 122.50113281 418.66731445 121.62988281 417.93286133 C121.01298584 417.50336182 120.39608887 417.0738623 119.76049805 416.63134766 C116.38232134 413.94193776 114.80058957 412.10438355 114.16552734 407.74609375 C114.16501755 403.96468314 114.37852885 400.26351104 114.69238281 396.49536133 C114.77166016 395.19147461 114.8509375 393.88758789 114.93261719 392.54418945 C115.13234715 389.33676129 115.36567105 386.13551491 115.62988281 382.93286133 C114.95747559 382.54654541 114.28506836 382.16022949 113.59228516 381.76220703 C99.09836525 373.43023288 84.64838537 365.03211294 70.27148438 356.49926758 C66.81653655 354.45056654 63.35728174 352.40920556 59.89794922 350.36791992 C55.13996967 347.55954293 50.38497588 344.74612195 45.62988281 341.93286133 C45.04424561 341.58654663 44.4586084 341.24023193 43.85522461 340.88342285 C24.36849079 329.35993168 4.94829308 317.73655158 -14.37011719 305.93286133 C-15.53524629 305.2224556 -16.70044865 304.51216999 -17.86572266 303.80200195 C-52.79604828 282.50693024 -52.79604828 282.50693024 -57.37011719 277.93286133 C-56.78943871 272.31963608 -54.99509395 268.04992665 -52.36010742 263.1394043 C-46.89286819 253.09514008 -46.89286819 253.09514008 -47.37011719 241.93286133 C-49.77308137 236.72530439 -52.87642086 232.05514136 -56.17089844 227.37426758 C-60.50034558 220.9162617 -61.59891022 215.66767462 -60.37011719 207.93286133 C-56.65962817 197.81334584 -46.1141793 192.69641888 -37.30761719 187.43286133 C-22.91635942 178.77246588 -15.28778785 170.42000984 -10.91308594 153.79614258 C-6.0860334 128.34125403 -9.20214922 108.50796295 -22.73608398 86.83203125 C-27.71111935 78.80358881 -30.4158228 71.81937379 -31.30761719 62.37036133 C-32.99470878 49.09769547 -40.5362975 41.55519868 -49.19824219 31.89379883 C-52.44905746 27.95171824 -53.19241316 24.51754378 -52.91308594 19.55004883 C-51.16786419 11.1378289 -45.18390968 4.78768848 -38.37011719 -0.06713867 C-27.11391899 -6.1070499 -11.799376 -2.72099921 0 0 Z " fill="#000000" transform="translate(116.3701171875,19.067138671875)"/>
</svg>
