<?xml version="1.0" encoding="UTF-8"?>
<svg version="1.1" xmlns="http://www.w3.org/2000/svg" width="512" height="512">
<path d="M0 0 C0.92232422 0.00902344 1.84464844 0.01804687 2.79492188 0.02734375 C5.05105809 0.0507234 7.30663684 0.08349084 9.5625 0.125 C9.56396521 1.07352533 9.56396521 1.07352533 9.56546003 2.0412128 C9.62376923 39.54387894 9.69759411 77.04648486 9.79148628 114.5490794 C9.80275405 119.0550175 9.81389256 123.56095591 9.82495117 128.06689453 C9.82715486 128.96392185 9.82935854 129.86094917 9.831629 130.78515914 C9.86697306 145.29762851 9.89185351 159.81009784 9.91284702 174.32259426 C9.93463212 189.22077006 9.96770824 204.11889016 10.01120156 219.01701856 C10.03767163 228.20526679 10.05540119 237.39344564 10.06184604 246.5817301 C10.06711415 252.88789493 10.08337878 259.19397257 10.10816566 265.50009063 C10.12213202 269.134948 10.13136978 272.76964944 10.12750816 276.40453529 C10.12343904 280.35474691 10.14258815 284.30466085 10.16377258 288.25482178 C10.15892501 289.39104312 10.15407743 290.52726446 10.14908296 291.69791675 C10.28819433 307.47348374 15.18741306 320.35421443 26.0859375 331.8359375 C37.10639868 342.022042 50.59839995 346.22151379 65.42480469 346.27026367 C66.07140045 346.27362228 66.71799622 346.2769809 67.38418579 346.28044128 C69.50093562 346.28986288 71.61760557 346.29189008 73.734375 346.29296875 C75.22259553 346.29618797 76.71081575 346.29955253 78.19903564 346.30305481 C81.31238538 346.30902452 84.42570745 346.31089699 87.5390625 346.31030273 C91.50059688 346.31020136 95.46195105 346.32383777 99.42344284 346.34107494 C102.49665112 346.35227308 105.56981694 346.35421954 108.64304352 346.35369301 C110.1020698 346.35486199 111.56109758 346.3592219 113.02010345 346.36702538 C131.64581044 346.45730546 147.00479311 343.36863877 160.71875 330.02734375 C171.66890129 318.44388147 175.02741739 304.94425302 174.96122742 289.33711243 C174.96787424 288.09448094 174.97452107 286.85184945 174.98136932 285.57156247 C174.9967016 282.15298415 174.99885409 278.734874 174.99523985 275.31629527 C174.99461268 271.61839578 175.01126702 267.92056758 175.02575684 264.22270203 C175.04848707 257.82606277 175.06041829 251.42947777 175.06488609 245.03280067 C175.07136148 235.78444571 175.09432322 226.53618859 175.12122939 217.28787317 C175.16444516 202.28087781 175.19444163 187.27388658 175.21606445 172.2668457 C175.23708978 157.69423391 175.26437842 143.12165589 175.30004883 128.54907227 C175.30224765 127.64988956 175.30444648 126.75070685 175.30671193 125.82427619 C175.31778197 121.31306339 175.32897471 116.80185091 175.34022844 112.29063857 C175.43333974 74.90212155 175.50497187 37.51358786 175.5625 0.125 C205.18544265 0.03366214 234.80837862 -0.03708379 264.43143262 -0.07926132 C267.93223461 -0.08426388 271.43303632 -0.08944119 274.93383789 -0.09472656 C275.63075633 -0.0957758 276.32767477 -0.09682505 277.04571196 -0.09790608 C288.31594639 -0.11529023 299.58609884 -0.14681688 310.85628472 -0.18361118 C322.42879146 -0.22107614 334.00125051 -0.24294835 345.57381505 -0.25135398 C352.07049959 -0.25656361 358.56699846 -0.26878773 365.06362343 -0.29792023 C371.18261047 -0.32513614 377.30133591 -0.33343237 383.42037773 -0.32743073 C385.66206409 -0.32852819 387.90375949 -0.33644494 390.14539337 -0.3518219 C414.57703278 -0.51114892 414.57703278 -0.51114892 423.9375 6.375 C433.13689062 16.01245684 433.86157086 25.8650979 433.81646729 38.717453 C433.81877407 40.09690223 433.82195205 41.47635023 433.82592177 42.85579568 C433.83424902 46.63218381 433.83015389 50.40847049 433.82394934 54.18485892 C433.81941715 58.26340323 433.82641256 62.34193032 433.83190918 66.42047119 C433.84079782 74.40613617 433.83888317 82.39176354 433.8330839 90.37742998 C433.82856376 96.87121961 433.82795604 103.3649987 433.83013153 109.85878944 C433.830438 110.78369814 433.83074446 111.70860684 433.83106022 112.66154307 C433.83169969 114.5406513 433.83234811 116.41975952 433.8330054 118.29886774 C433.83870756 135.91716332 433.83215342 153.53543808 433.82140467 171.15373025 C433.81247667 186.25459689 433.81401522 201.35543275 433.82324219 216.45629883 C433.83395962 234.00459512 433.83815045 251.55287316 433.83201766 269.10117227 C433.83138059 270.97482542 433.83075185 272.84847857 433.83013153 274.72213173 C433.82982298 275.64391951 433.82951443 276.56570729 433.82919653 277.51542803 C433.82747345 283.9950889 433.83037648 290.47473814 433.83509064 296.9543972 C433.84071617 304.86043544 433.83914828 312.766434 433.82852915 320.67246773 C433.82329374 324.70241129 433.82117901 328.73228884 433.82782745 332.76223183 C433.83383393 336.45916703 433.83043523 340.15597569 433.81987235 343.85289959 C433.81661763 345.80734869 433.82306727 347.76180674 433.82998681 349.71624631 C433.72551704 373.51041181 433.72551704 373.51041181 425.5625 382.125 C418.47077858 388.10783407 411.45208557 390.37196111 402.1541853 390.38226891 C401.0803559 390.38752802 401.0803559 390.38752802 399.98483297 390.39289337 C397.59155088 390.4021801 395.19851359 390.39729117 392.80522156 390.39242554 C391.06976413 390.39616317 389.33430839 390.40076514 387.59885532 390.40615618 C382.833895 390.41838753 378.06900488 390.41812555 373.30403244 390.41576743 C368.16348255 390.4153593 363.02295517 390.426398 357.88241577 390.43588257 C347.81279674 390.45249403 337.74320111 390.45799217 327.67356952 390.45910732 C319.48874951 390.46005768 311.30393722 390.46416735 303.11911964 390.47050858 C279.91402994 390.48812098 256.70895873 390.49734739 233.50386228 390.49584763 C232.2529222 390.49576772 231.00198212 390.4956878 229.71313477 390.49560547 C228.46066756 390.49552371 227.20820036 390.49544195 225.9177796 390.49535771 C205.61682207 390.49454469 185.31593871 390.51368629 165.01500263 390.5418822 C144.1705187 390.57060465 123.32607095 390.58442286 102.48156673 390.58269465 C90.77878837 390.58203055 79.07608779 390.58753158 67.37332726 390.60905075 C57.40999673 390.62725404 47.44677924 390.6316168 37.48343929 390.6180319 C32.40067884 390.61149815 27.3181353 390.61139993 22.23539543 390.6287384 C17.57997132 390.64445581 12.92493635 390.64161902 8.26952181 390.62417014 C6.58786669 390.62109734 4.90618263 390.62474319 3.22456165 390.63589029 C-8.0504412 390.70566354 -18.21362298 390.02070873 -26.90234375 381.96875 C-32.17086874 375.64115764 -34.55910364 368.44466646 -34.56892776 360.33521843 C-34.57276891 359.14558333 -34.57661005 357.95594824 -34.5805676 356.73026359 C-34.57970112 355.42192279 -34.57883463 354.11358198 -34.57794189 352.76559448 C-34.58052571 351.36271143 -34.58353892 349.95982912 -34.5869453 348.55694783 C-34.59501676 344.697351 -34.59680495 340.83777276 -34.59754276 336.97816849 C-34.59939309 332.81713105 -34.60694039 328.65610327 -34.61367798 324.49507141 C-34.62726347 315.39368876 -34.63328652 306.29231051 -34.63768864 297.1909194 C-34.64045103 291.50754929 -34.64468841 285.82418088 -34.64919281 280.14081192 C-34.66138639 264.40452875 -34.67168512 248.66824694 -34.6750679 232.93195915 C-34.67528747 231.92465982 -34.67550703 230.91736049 -34.67573325 229.87953693 C-34.67595153 228.86982666 -34.67616981 227.86011639 -34.6763947 226.81980884 C-34.67683817 224.77375277 -34.67728473 222.7276967 -34.67773438 220.68164062 C-34.6779558 219.6667261 -34.67817723 218.65181157 -34.67840537 217.60614206 C-34.68235231 201.16552148 -34.69980277 184.72494525 -34.7230939 168.2843418 C-34.74681481 151.40403987 -34.75927011 134.52376018 -34.76043582 117.64344132 C-34.76135223 108.16621939 -34.76709591 98.68905522 -34.78525543 89.21184921 C-34.80066648 81.14056563 -34.80577099 73.06935767 -34.79751733 64.99806218 C-34.79361422 60.88139685 -34.79452378 56.76488376 -34.80857468 52.64823723 C-34.82133408 48.87538918 -34.82009833 45.10280743 -34.80798396 41.32995965 C-34.80510904 39.32736138 -34.81694734 37.32475842 -34.82940602 35.32219684 C-34.77518093 25.40443427 -33.72368839 15.50136399 -26.4375 8.125 C-18.01831517 1.27254317 -10.60100912 -0.19843502 0 0 Z M216.5625 55.125 C212.49003685 60.26916398 211.44784904 64.07427781 211.40136719 70.50097656 C211.39175964 71.57599426 211.3821521 72.65101196 211.37225342 73.75860596 C211.36800354 74.91592224 211.36375366 76.07323853 211.359375 77.265625 C211.35367493 78.46177429 211.34797485 79.65792358 211.34210205 80.89031982 C211.33265631 83.42215084 211.32611976 85.95399414 211.32226562 88.48583984 C211.31257219 92.34624877 211.28154874 96.20612252 211.25 100.06640625 C211.24346844 102.52864268 211.23821857 104.99088291 211.234375 107.453125 C211.2220282 108.60234436 211.2096814 109.75156372 211.19696045 110.93560791 C211.21146194 121.02763201 211.21146194 121.02763201 215.97918701 129.67681885 C220.58857559 133.71085566 224.082286 134.25069491 230.02630615 134.27217102 C230.68546595 134.27584771 231.34462574 134.2795244 232.02376008 134.2833125 C234.23687656 134.29434292 236.44994608 134.29819207 238.66308594 134.30200195 C240.24821115 134.30826709 241.8333349 134.31491394 243.41845703 134.32191467 C248.62791929 134.34295144 253.83738183 134.35331667 259.046875 134.36328125 C260.84059922 134.36732894 262.63432328 134.37144587 264.42804718 134.37563133 C272.85515998 134.39468213 281.28226402 134.40891342 289.70939422 134.4172433 C299.435304 134.42701584 309.1609862 134.4533362 318.88681579 134.49374419 C326.40539675 134.52390917 333.9239125 134.53871254 341.4425528 134.54202431 C345.93258653 134.54437437 350.4223771 134.55332895 354.91234589 134.57848549 C359.13787993 134.60177798 363.36301091 134.60599482 367.58859253 134.59572411 C369.13694856 134.59522892 370.68532451 134.60154441 372.23361969 134.61528015 C383.116948 134.8938374 383.116948 134.8938374 392.5625 130.125 C396.28394298 125.3262972 397.6810873 121.77773344 397.72363281 115.77075195 C397.73324036 114.67563797 397.7428479 113.58052399 397.75274658 112.45222473 C397.75699646 111.26787338 397.76124634 110.08352203 397.765625 108.86328125 C397.77132507 107.64352097 397.77702515 106.42376068 397.78289795 105.16703796 C397.79235252 102.58215198 397.79888374 99.99725392 397.80273438 97.41235352 C397.81241856 93.47064956 397.84342986 89.5294717 397.875 85.58789062 C397.88153226 83.07552393 397.88678186 80.5631535 397.890625 78.05078125 C397.9091452 76.28943596 397.9091452 76.28943596 397.92803955 74.49250793 C397.92195218 64.32784632 397.92195218 64.32784632 393.18121338 55.57417297 C388.28258065 51.20921781 384.36226636 51.00091893 378.0164032 50.97782898 C377.36047253 50.97415229 376.70454186 50.9704756 376.02873451 50.9666875 C373.83254354 50.95568135 371.63639993 50.95181209 369.44018555 50.94799805 C367.86476492 50.94173117 366.28934577 50.93508416 364.71392822 50.92808533 C359.54236882 50.90707243 354.3708092 50.89668678 349.19921875 50.88671875 C347.41756487 50.88267041 345.63591115 50.87855347 343.85425758 50.87436867 C335.48481331 50.85532452 327.11537783 50.84109084 318.74591607 50.8327567 C309.08906628 50.82298131 299.43244551 50.79665073 289.77567643 50.75625581 C282.30803028 50.72609116 274.84044979 50.71128757 267.3727439 50.70797569 C262.91402347 50.70562596 258.45554794 50.69667536 253.99689293 50.67151451 C249.80171348 50.64822203 245.60694001 50.64400516 241.41171265 50.65427589 C239.87464357 50.65477105 238.33755442 50.64845646 236.80054665 50.63471985 C225.96778828 50.37020529 225.96778828 50.37020529 216.5625 55.125 Z M211.125 180.8125 C209.10762107 185.08934334 208.72928923 188.4756839 209.5625 193.125 C212.21608498 198.24262818 215.09367826 201.30205942 220.5625 203.125 C224.80774122 203.41221537 229.0586398 203.40274624 233.3125 203.4375 C234.48039062 203.46650391 235.64828125 203.49550781 236.8515625 203.52539062 C243.666829 203.57561651 248.07675675 203.30569783 253.5625 199.125 C256.87893392 195.38338224 258.29504599 192.3049642 258.01171875 187.21484375 C256.92836299 182.17488434 254.3434918 178.40426265 250.19140625 175.421875 C244.70263478 173.46033342 239.40893223 173.65209474 233.625 173.6875 C232.47064453 173.66751953 231.31628906 173.64753906 230.12695312 173.62695312 C221.8286632 173.63171405 216.87334508 174.47458107 211.125 180.8125 Z M281.5625 181.4375 C279.70378008 186.43280979 279.96534915 190.49069242 281.75 195.375 C284.37688033 199.36061154 287.03191592 201.61480531 291.5625 203.125 C295.80774122 203.41221537 300.0586398 203.40274624 304.3125 203.4375 C305.48039062 203.46650391 306.64828125 203.49550781 307.8515625 203.52539062 C314.666829 203.57561651 319.07675675 203.30569783 324.5625 199.125 C327.92831533 195.32766989 329.24686792 192.29796522 328.94140625 187.14453125 C327.97708956 182.0048227 325.84345312 179.1015508 321.71875 175.95703125 C316.37484164 173.06139961 310.55091983 173.50580859 304.625 173.5625 C303.48353516 173.53865234 302.34207031 173.51480469 301.16601562 173.49023438 C292.78644947 173.50475702 287.13671988 174.99230826 281.5625 181.4375 Z M352.5625 181.4375 C350.9460915 185.78159784 350.73591301 189.69444063 352.21875 194.0546875 C354.51676016 198.67051826 357.64587262 201.39193996 362.5625 203.125 C366.92851247 203.67391202 371.23050914 203.63856321 375.625 203.5625 C377.36233398 203.57313477 377.36233398 203.57313477 379.13476562 203.58398438 C387.28897568 203.55316194 387.28897568 203.55316194 394.5625 200.125 C398.49771339 195.76435813 399.87429669 193.16519717 399.77734375 187.21875 C399.31001437 182.66441279 397.35281249 179.85603905 394.0625 176.8125 C388.50540208 173.06145891 382.34840257 173.82786488 375.875 173.75 C374.71548828 173.71261719 373.55597656 173.67523438 372.36132812 173.63671875 C363.83933524 173.54951246 358.23807168 174.87512024 352.5625 181.4375 Z M211.125 240.8125 C209.10762107 245.08934334 208.72928923 248.4756839 209.5625 253.125 C212.21608498 258.24262818 215.09367826 261.30205942 220.5625 263.125 C224.80774122 263.41221537 229.0586398 263.40274624 233.3125 263.4375 C234.48039062 263.46650391 235.64828125 263.49550781 236.8515625 263.52539062 C243.666829 263.57561651 248.07675675 263.30569783 253.5625 259.125 C256.87893392 255.38338224 258.29504599 252.3049642 258.01171875 247.21484375 C256.92836299 242.17488434 254.3434918 238.40426265 250.19140625 235.421875 C244.70263478 233.46033342 239.40893223 233.65209474 233.625 233.6875 C232.47064453 233.66751953 231.31628906 233.64753906 230.12695312 233.62695312 C221.8286632 233.63171405 216.87334508 234.47458107 211.125 240.8125 Z M281.5625 241.4375 C279.70378008 246.43280979 279.96534915 250.49069242 281.75 255.375 C284.37688033 259.36061154 287.03191592 261.61480531 291.5625 263.125 C295.80774122 263.41221537 300.0586398 263.40274624 304.3125 263.4375 C305.48039062 263.46650391 306.64828125 263.49550781 307.8515625 263.52539062 C314.666829 263.57561651 319.07675675 263.30569783 324.5625 259.125 C327.92831533 255.32766989 329.24686792 252.29796522 328.94140625 247.14453125 C327.97708956 242.0048227 325.84345312 239.1015508 321.71875 235.95703125 C316.37484164 233.06139961 310.55091983 233.50580859 304.625 233.5625 C303.48353516 233.53865234 302.34207031 233.51480469 301.16601562 233.49023438 C292.78644947 233.50475702 287.13671988 234.99230826 281.5625 241.4375 Z M352.5625 241.4375 C350.9460915 245.78159784 350.73591301 249.69444063 352.21875 254.0546875 C354.51676016 258.67051826 357.64587262 261.39193996 362.5625 263.125 C366.92851247 263.67391202 371.23050914 263.63856321 375.625 263.5625 C377.36233398 263.57313477 377.36233398 263.57313477 379.13476562 263.58398438 C387.28897568 263.55316194 387.28897568 263.55316194 394.5625 260.125 C398.49771339 255.76435813 399.87429669 253.16519717 399.77734375 247.21875 C399.31001437 242.66441279 397.35281249 239.85603905 394.0625 236.8125 C388.50540208 233.06145891 382.34840257 233.82786488 375.875 233.75 C374.71548828 233.71261719 373.55597656 233.67523438 372.36132812 233.63671875 C363.83933524 233.54951246 358.23807168 234.87512024 352.5625 241.4375 Z M211.125 300.8125 C209.10762107 305.08934334 208.72928923 308.4756839 209.5625 313.125 C212.21608498 318.24262818 215.09367826 321.30205942 220.5625 323.125 C224.80774122 323.41221537 229.0586398 323.40274624 233.3125 323.4375 C234.48039062 323.46650391 235.64828125 323.49550781 236.8515625 323.52539062 C243.666829 323.57561651 248.07675675 323.30569783 253.5625 319.125 C256.87893392 315.38338224 258.29504599 312.3049642 258.01171875 307.21484375 C256.92836299 302.17488434 254.3434918 298.40426265 250.19140625 295.421875 C244.70263478 293.46033342 239.40893223 293.65209474 233.625 293.6875 C232.47064453 293.66751953 231.31628906 293.64753906 230.12695312 293.62695312 C221.8286632 293.63171405 216.87334508 294.47458107 211.125 300.8125 Z M281.5625 301.4375 C279.70378008 306.43280979 279.96534915 310.49069242 281.75 315.375 C284.37688033 319.36061154 287.03191592 321.61480531 291.5625 323.125 C295.80774122 323.41221537 300.0586398 323.40274624 304.3125 323.4375 C305.48039062 323.46650391 306.64828125 323.49550781 307.8515625 323.52539062 C314.666829 323.57561651 319.07675675 323.30569783 324.5625 319.125 C327.92831533 315.32766989 329.24686792 312.29796522 328.94140625 307.14453125 C327.97708956 302.0048227 325.84345312 299.1015508 321.71875 295.95703125 C316.37484164 293.06139961 310.55091983 293.50580859 304.625 293.5625 C303.48353516 293.53865234 302.34207031 293.51480469 301.16601562 293.49023438 C292.78644947 293.50475702 287.13671988 294.99230826 281.5625 301.4375 Z M352.5625 301.4375 C350.9460915 305.78159784 350.73591301 309.69444063 352.21875 314.0546875 C354.51676016 318.67051826 357.64587262 321.39193996 362.5625 323.125 C366.92851247 323.67391202 371.23050914 323.63856321 375.625 323.5625 C377.36233398 323.57313477 377.36233398 323.57313477 379.13476562 323.58398438 C387.28897568 323.55316194 387.28897568 323.55316194 394.5625 320.125 C398.49771339 315.76435813 399.87429669 313.16519717 399.77734375 307.21875 C399.31001437 302.66441279 397.35281249 299.85603905 394.0625 296.8125 C388.50540208 293.06145891 382.34840257 293.82786488 375.875 293.75 C374.71548828 293.71261719 373.55597656 293.67523438 372.36132812 293.63671875 C363.83933524 293.54951246 358.23807168 294.87512024 352.5625 301.4375 Z " fill="#000000" transform="translate(56.4375,76.875)"/>
<path d="M0 0 C0.70643143 -0.00832352 1.41286285 -0.01664703 2.14070129 -0.02522278 C4.46796243 -0.04924575 6.7949426 -0.05808691 9.12231445 -0.06469727 C10.75031107 -0.07367206 12.37830688 -0.08279405 14.00630188 -0.09205627 C17.41828408 -0.10852975 20.83016838 -0.11624292 24.2421875 -0.11914062 C28.59206981 -0.12451148 32.94101775 -0.16214389 37.29063702 -0.20788479 C40.65464035 -0.23778886 44.01842275 -0.24486712 47.38254738 -0.24586678 C48.98478266 -0.25004552 50.58702004 -0.26238458 52.18912315 -0.28338432 C61.26238447 -0.3928119 69.12293272 -0.22097069 76.7980957 5.30639648 C79.05200195 7.65795898 79.05200195 7.65795898 80.3605957 9.93139648 C80.81563477 10.68678711 81.27067383 11.44217773 81.73950195 12.22045898 C83.55998535 15.80768458 83.92538501 18.60161088 83.93511009 22.56707859 C83.94018463 23.66415435 83.94525918 24.76123012 83.95048749 25.8915506 C83.95098525 27.10163959 83.95148301 28.31172858 83.95199585 29.55848694 C83.95856923 31.48122685 83.95856923 31.48122685 83.96527541 33.44281 C83.97724513 37.00822067 83.98289029 40.57361781 83.98745656 44.13904464 C83.99341124 47.9817639 84.00502152 51.82446696 84.01574707 55.66717529 C84.04027561 64.95192075 84.05489964 74.23667157 84.06780714 83.52143946 C84.07151898 86.14400472 84.07549223 88.76656944 84.0795598 91.38913417 C84.10479812 107.67520702 84.1268511 123.96128072 84.13928795 140.24736881 C84.14221765 144.02021856 84.14517931 147.79306828 84.14819336 151.56591797 C84.14893941 152.50364201 84.14968546 153.44136606 84.15045412 154.40750598 C84.16310424 169.59372082 84.19632225 184.77981849 84.23799519 199.96597857 C84.28043107 215.55803372 84.30398496 231.15002892 84.30920851 246.74214166 C84.31262094 255.49619975 84.3243561 264.25007478 84.35731125 273.004076 C84.38533578 280.46057685 84.39630063 287.91685712 84.38511579 295.37340654 C84.37993506 299.17626794 84.38277701 302.97866762 84.40758133 306.78146172 C84.43428335 310.90976699 84.42199357 315.03705968 84.40609741 319.16542053 C84.42692054 320.95713144 84.42692054 320.95713144 84.44816434 322.78503853 C84.37155861 330.86687245 82.90688477 337.83276215 77.28460157 343.9542833 C70.79941823 349.61514108 64.52029863 350.4175807 56.109375 350.4675293 C54.79748703 350.47713684 53.48559906 350.48674438 52.13395691 350.49664307 C50.71341121 350.5014919 49.29286347 350.50577052 47.87231445 350.50952148 C47.14986856 350.51234886 46.42742268 350.51517624 45.68308449 350.51808929 C41.86017115 350.53303384 38.0372951 350.5422933 34.21435547 350.54663086 C30.28726843 350.55210995 26.36052905 350.57613945 22.43355083 350.60460281 C19.39387546 350.62332237 16.35428233 350.62843971 13.31455421 350.62996674 C11.8678173 350.63297258 10.4210811 350.64093027 8.97440147 350.65415192 C-0.16038206 350.73168351 -8.9201549 350.76737116 -16.5144043 345.05639648 C-22.02691576 339.41568708 -24.31956195 333.79312646 -24.33891869 325.95390129 C-24.34399323 324.86180127 -24.34906777 323.76970125 -24.35429609 322.64450729 C-24.35479385 321.44511304 -24.3552916 320.24571878 -24.35580444 319.00997925 C-24.3601867 317.73546532 -24.36456895 316.46095139 -24.369084 315.14781582 C-24.38103824 311.60746764 -24.38669527 308.06713308 -24.39126515 304.52676868 C-24.39722558 300.70928875 -24.40883429 296.89182505 -24.41955566 293.07435608 C-24.44406909 283.85380347 -24.45870502 274.63324548 -24.47161573 265.41267031 C-24.47532836 262.8080132 -24.47930153 260.20335663 -24.4833684 257.59870005 C-24.50860499 241.42100397 -24.53065611 225.24330704 -24.54309654 209.06559563 C-24.54602619 205.31903963 -24.54898786 201.57248366 -24.55200195 197.82592773 C-24.552748 196.89475042 -24.55349405 195.96357311 -24.55426271 195.0041783 C-24.5669149 179.92149109 -24.60013685 164.8389218 -24.64180379 149.75628971 C-24.6842399 134.26816403 -24.70779349 118.78009871 -24.71301711 103.29191506 C-24.71642925 94.59711613 -24.72816132 85.90250152 -24.76111984 77.20775986 C-24.78914453 69.80251978 -24.80010909 62.3975018 -24.78892438 54.99221282 C-24.78374392 51.21567169 -24.7865839 47.43959551 -24.81138992 43.66312218 C-24.83809421 39.56333213 -24.82580146 35.46456161 -24.80990601 31.36471558 C-24.82378809 30.17870565 -24.83767018 28.99269573 -24.85197294 27.77074611 C-24.7729649 19.4921451 -23.18071883 12.56408996 -17.38787305 6.36521804 C-12.05066387 1.43051406 -7.26915363 0.06073989 0 0 Z " fill="#000000" transform="translate(119.201904296875,44.693603515625)"/>
</svg>
