<?xml version="1.0" encoding="UTF-8"?>
<svg version="1.1" xmlns="http://www.w3.org/2000/svg" width="512" height="512">
<path d="M0 0 C2.16908252 0.00084719 4.3381659 0.00036933 6.50724792 -0.00132751 C12.37012209 -0.00218529 18.23281066 0.01540531 24.09564185 0.03639436 C30.23219334 0.05519743 36.36874947 0.05691446 42.50532532 0.06047058 C54.11435392 0.06978038 65.72329738 0.09437978 77.33228856 0.12451905 C90.55356186 0.1580962 103.77483931 0.17455741 116.99614465 0.18960536 C144.18277964 0.22093025 171.36933914 0.27367005 198.5559082 0.34057617 C198.8156543 1.22753174 199.07540039 2.1144873 199.34301758 3.02832031 C199.86605469 4.77810181 199.86605469 4.77810181 200.3996582 6.56323242 C200.7419043 7.71831299 201.08415039 8.87339355 201.43676758 10.06347656 C204.46895111 18.94240317 211.27299815 25.68044363 217.3605957 32.61791992 C217.85720703 33.20734375 218.35381836 33.79676758 218.86547852 34.40405273 C220.10175278 35.82030454 221.40325198 37.18033745 222.73852539 38.50366211 C227.25706598 43.32277958 229.09647774 46.53570636 228.8996582 53.23901367 C228.66262206 55.73579439 228.38029181 58.2286352 228.0559082 60.71557617 C227.79170906 63.20215636 227.53125074 65.68913704 227.2746582 68.17651367 C227.14349609 69.37679199 227.01233398 70.57707031 226.87719727 71.8137207 C225.82676647 83.34451344 226.09979964 93.91079182 233.5559082 103.34057617 C239.92396542 110.59308578 247.12009645 114.41819494 256.6027832 115.59448242 C265.78038702 116.11365344 274.22275679 112.37613831 282.48168945 108.81323242 C283.54121826 108.35803223 284.60074707 107.90283203 285.69238281 107.43383789 C287.82433526 106.50841141 289.94917791 105.56640136 292.06591797 104.60668945 C293.06034912 104.17211426 294.05478027 103.73753906 295.0793457 103.28979492 C295.96541504 102.89107178 296.85148437 102.49234863 297.7644043 102.08154297 C303.52866621 100.55149794 308.81139718 102.62396153 314.14575195 104.84448242 C315.34135742 105.33754883 316.53696289 105.83061523 317.76879883 106.33862305 C319.01040887 106.85993221 320.25194444 107.38141876 321.4934082 107.90307617 C322.76198258 108.4292048 324.03086048 108.95460224 325.30004883 109.47924805 C328.38839243 110.75920794 331.47345897 112.0465006 334.5559082 113.34057617 C334.62614379 133.45590691 334.67896745 153.57121259 334.71134472 173.68664074 C334.72678095 183.02762654 334.74780808 192.36853592 334.78222656 201.70947266 C334.81222863 209.8557439 334.83150676 218.00195977 334.83817369 226.14828473 C334.84206772 230.45743342 334.85115077 234.76642377 334.87309837 239.07552147 C334.89363474 243.14092299 334.8997078 247.20610266 334.89523125 251.27155113 C334.89604885 252.75449331 334.90191157 254.2374438 334.91352463 255.72034073 C335.00386902 267.8640505 333.70333951 279.47939262 328.0559082 290.40307617 C327.5474939 291.40250244 327.5474939 291.40250244 327.02880859 292.42211914 C323.27188739 299.42620745 318.24807065 304.86435312 312.5559082 310.34057617 C311.69932617 311.22616211 311.69932617 311.22616211 310.82543945 312.12963867 C297.78885804 324.66352414 279.38341604 328.6534183 261.93725586 328.32373047 C260.01470707 328.29765367 258.09214997 328.27218422 256.16958618 328.24723816 C255.16026661 328.23283377 254.15094704 328.21842937 253.11104202 328.20358849 C246.57390259 328.12285204 240.03618888 328.11129941 233.49863625 328.08848858 C227.77951268 328.06467859 222.06275476 328.01588816 216.34448242 327.91210938 C210.78415346 327.81258367 205.2271784 327.783187 199.66602707 327.79905128 C197.56503906 327.79296644 195.46395531 327.7625672 193.36372757 327.70572472 C177.54276139 327.29812279 168.85598403 330.88332375 157.30163193 341.73423195 C155.08830936 343.77084167 152.7253806 345.53808852 150.2746582 347.27807617 C149.56825195 347.79241211 148.8618457 348.30674805 148.1340332 348.83666992 C147.44825195 349.33295898 146.7624707 349.82924805 146.0559082 350.34057617 C139.80503741 354.90453978 133.6455396 359.56372762 127.5559082 364.34057617 C87.16595213 395.96965563 87.16595213 395.96965563 67.5559082 394.34057617 C58.86964495 392.29401348 51.47796241 387.3554112 46.2434082 380.15307617 C39.67775826 369.09249049 40.31023371 358.0440614 40.8684082 345.65307617 C40.93180641 343.96888899 40.99366725 342.28464319 41.05395508 340.6003418 C41.20356684 336.51286206 41.37392567 332.42673739 41.5559082 328.34057617 C40.87511703 328.34723801 40.19432587 328.35389984 39.49290466 328.36076355 C32.33760351 328.427694 25.18239283 328.47261364 18.02685547 328.50537109 C15.36456394 328.51864635 12.70277183 328.54075057 10.04052734 328.56689453 C-16.81645631 328.82382685 -38.51537581 326.86119769 -59.02612305 307.81323242 C-76.0040686 290.45129456 -78.9116826 270.19939269 -78.83227539 247.06323242 C-78.8363487 245.05434892 -78.84169482 243.04546766 -78.84820557 241.03659058 C-78.86179462 235.61924032 -78.85661547 230.20206291 -78.84706831 224.78470993 C-78.83942788 219.09247145 -78.84652943 213.40024693 -78.85122681 207.70800781 C-78.85667165 198.15223558 -78.84952618 188.5965331 -78.83520508 179.04077148 C-78.81888107 168.02191483 -78.82417047 157.00322476 -78.84068429 145.98437214 C-78.85433546 136.49264007 -78.85620111 127.00095789 -78.84836829 117.50921917 C-78.84371169 111.85386618 -78.84301116 106.19859126 -78.85297775 100.54324341 C-78.86169815 95.22430825 -78.85553352 89.90558609 -78.83829498 84.58667374 C-78.83435709 82.64457679 -78.8354174 80.70246166 -78.84208298 78.76037216 C-78.90410109 58.84127062 -76.05595799 41.48924832 -63.4440918 25.34057617 C-62.93362305 24.65350586 -62.4231543 23.96643555 -61.8972168 23.25854492 C-54.57739862 14.07253547 -43.43011155 7.22968394 -32.4440918 3.34057617 C-31.80137927 3.09347239 -31.15866674 2.84636862 -30.49647808 2.59177685 C-20.57457518 -0.70083015 -10.32171217 -0.05655015 0 0 Z M41.1184082 118.90307617 C38.44695939 123.07053631 38.026432 126.43346632 38.5559082 131.34057617 C40.23277357 135.02967997 42.51275219 137.67781466 45.5559082 140.34057617 C48.96590287 141.47724106 51.58118748 141.47508041 55.17829895 141.48774719 C56.19259831 141.49326222 56.19259831 141.49326222 57.22738856 141.49888867 C59.49811696 141.50992074 61.7687996 141.51376851 64.03955078 141.51757812 C65.66570684 141.52384308 67.29186147 141.53048991 68.91801453 141.53749084 C74.26214603 141.55852761 79.60627782 141.56889197 84.95043945 141.57885742 C86.79000043 141.58290494 88.62956126 141.58702186 90.46912193 141.5912075 C99.11034107 141.6102573 107.75155166 141.62448951 116.39278775 141.63281947 C126.36943715 141.64259548 136.34586488 141.66892532 146.32243615 141.70932037 C154.03293192 141.73946954 161.7433641 141.75428716 169.45391768 141.75760049 C174.05961196 141.7599521 178.66506938 141.76892715 183.27070045 141.79406166 C187.60375013 141.81732686 191.93640672 141.82158196 196.26950264 141.81130028 C197.85859229 141.81080445 199.4477012 141.81713888 201.03673172 141.83085632 C203.20914735 141.84855861 205.38014962 141.84147907 207.55256653 141.82832336 C208.7672804 141.83071172 209.98199427 141.83310007 211.23351765 141.8355608 C215.95518317 141.13210592 218.92919581 138.8551015 222.3684082 135.65307617 C224.2522293 131.98458247 224.78461805 128.45042288 224.5559082 124.34057617 C223.31653547 120.51978805 221.32104023 117.92913927 218.1184082 115.46557617 C213.43953081 113.41143488 209.04292809 113.21316528 203.97221375 113.20013428 C203.32430132 113.19716316 202.6763889 113.19419203 202.00884277 113.19113088 C199.84572569 113.18248465 197.68266421 113.18093911 195.51953125 113.17944336 C193.96529015 113.17481233 192.41105018 113.16978729 190.85681152 113.16439819 C186.63976322 113.1513005 182.42273081 113.1448345 178.20566535 113.14038754 C175.56913843 113.13745285 172.93261582 113.13334732 170.29609108 113.12888336 C162.04144171 113.11521601 153.78680224 113.10554535 145.53214234 113.10168147 C136.01345466 113.09720099 126.49491059 113.07965035 116.97626656 113.05068088 C109.61134285 113.02904644 102.2464595 113.01897627 94.88150436 113.01764035 C90.48597137 113.01659369 86.09057353 113.01071522 81.69507408 112.99282074 C77.5590218 112.9763093 73.42320582 112.97419939 69.28713226 112.98295975 C67.77306547 112.98372845 66.25898581 112.97940943 64.74495125 112.9695015 C51.81396696 112.56312936 51.81396696 112.56312936 41.1184082 118.90307617 Z M41.2434082 191.90307617 C38.40632885 196.00107968 37.88547286 199.40874359 38.5559082 204.34057617 C41.25135685 209.44267539 44.07733931 212.51438654 49.5559082 214.34057617 C52.39407554 214.45254677 55.20831703 214.5082668 58.04711914 214.51757812 C58.91413452 214.52414932 59.7811499 214.53072052 60.67443848 214.53749084 C63.5463876 214.55721603 66.41828444 214.56888502 69.2902832 214.57885742 C70.27172554 214.58293295 71.25316788 214.58700848 72.26435089 214.5912075 C77.45951629 214.61206541 82.6546553 214.62636807 87.84985352 214.63574219 C93.21102192 214.64680305 98.57177487 214.68120016 103.93279648 214.72091389 C108.05927289 214.74708191 112.18565036 214.75543422 116.31220245 214.75902367 C118.28811701 214.76388951 120.26402714 214.77550342 122.23986053 214.79406166 C125.00927985 214.81845582 127.77762488 214.81748752 130.54711914 214.81054688 C131.35880554 214.82335693 132.17049194 214.83616699 133.0067749 214.84936523 C138.64580209 214.79801672 141.89665987 213.54538448 146.5559082 210.34057617 C149.93715965 206.63210684 150.18505136 202.69812197 150.0402832 197.84838867 C149.22815576 193.6436643 146.9141011 190.90474949 143.5559082 188.34057617 C139.10116769 186.04319521 134.81378617 186.05083388 129.91357422 186.06591797 C129.05441406 186.06080704 128.19525391 186.05569611 127.31005859 186.0504303 C124.47657256 186.03655669 121.64333037 186.03748934 118.80981445 186.03979492 C116.8359315 186.03590688 114.86204938 186.03157198 112.88816833 186.02680969 C108.75321743 186.01935236 104.61835192 186.01963533 100.48339844 186.02490234 C95.18950067 186.03069747 89.89595271 186.0137625 84.60211277 185.99055767 C80.52628034 185.97581296 76.45053203 185.97494962 72.37467766 185.9780674 C70.42307785 185.9775546 68.47147327 185.97232458 66.51989937 185.96225548 C63.78891505 185.94989366 61.05861048 185.95668113 58.32763672 185.96826172 C57.52484787 185.96061798 56.72205902 185.95297424 55.89494324 185.94509888 C49.77948232 186.00230223 45.48785817 187.19976675 41.2434082 191.90307617 Z " fill="#000000" transform="translate(95.444091796875,97.659423828125)"/>
<path d="M0 0 C6.3336103 4.16208677 9.59194977 10.23270185 13.4375 16.625 C14.70660898 18.70077907 15.97613826 20.77630122 17.24609375 22.8515625 C17.86210449 23.86766602 18.47811523 24.88376953 19.11279297 25.93066406 C21.58137058 29.9455357 24.14896714 33.8932161 26.73461914 37.83349609 C28 40 28 40 28 42 C28.58595947 42.09434326 29.17191895 42.18868652 29.77563477 42.28588867 C38.13459668 43.71341091 46.34363144 45.65638249 54.5637207 47.72143555 C56.15680189 48.11810834 57.75191937 48.50668423 59.34887695 48.88745117 C61.68407755 49.44465274 64.01202118 50.02611465 66.33984375 50.61328125 C67.05027328 50.77806473 67.76070282 50.94284821 68.49266052 51.11262512 C73.18819897 52.33681691 75.41745192 53.89889913 78 58 C79.01071309 61.16729278 78.82647446 63.79163643 78 67 C75.76516754 70.72059365 72.90857241 73.7932301 70 77 C68.64246625 78.58412582 67.29963309 80.17993676 65.95776367 81.77734375 C64.5654992 83.4339314 63.16424594 85.08256658 61.76171875 86.73046875 C58.34520144 90.75943731 55.00990601 94.85257124 51.6796875 98.953125 C50 101 50 101 49 102 C49.06637448 105.07434518 49.19549372 108.11924653 49.375 111.1875 C49.42390381 112.09717529 49.47280762 113.00685059 49.52319336 113.9440918 C49.8060347 119.07279718 50.156386 124.19193215 50.5625 129.3125 C50.71828331 131.54099343 50.8638499 133.77022097 51 136 C51.0611499 136.97356445 51.0611499 136.97356445 51.12353516 137.96679688 C51.23733059 139.99865062 51.31122868 142.02851751 51.375 144.0625 C51.42398438 145.27035156 51.47296875 146.47820312 51.5234375 147.72265625 C50.84975689 151.94070127 49.25232558 153.3385624 46 156 C42.01421048 157.99289476 36.9184274 156.59546768 32.8013916 155.31756592 C30.57530812 154.46061329 28.38930556 153.54000845 26.203125 152.5859375 C25.40646423 152.2520401 24.60980347 151.9181427 23.78900146 151.5741272 C20.41526493 150.1601073 17.05324266 148.71922496 13.69091797 147.27832031 C11.2202129 146.22426687 8.74332151 145.18592531 6.265625 144.1484375 C5.51033508 143.81830658 4.75504517 143.48817566 3.97686768 143.14804077 C-1.91888557 140.68511936 -4.9724353 141.17710718 -10.85302734 143.49047852 C-12.3489187 144.11617141 -13.84313646 144.74587578 -15.3359375 145.37890625 C-16.97377019 146.05969761 -18.61179715 146.74002174 -20.25 147.41992188 C-22.81509699 148.49010352 -25.37845816 149.56396198 -27.93847656 150.64624023 C-30.42066282 151.69321857 -32.90890266 152.72454708 -35.3984375 153.75390625 C-36.15595306 154.07887589 -36.91346863 154.40384552 -37.69393921 154.73866272 C-42.29348125 156.62576012 -45.93847043 157.4378167 -51 157 C-54.04172389 155.41248673 -56.45151837 153.09696325 -58 150 C-58.0282115 148.38150279 -57.9880901 146.76158073 -57.9140625 145.14453125 C-57.86983154 144.14075439 -57.82560059 143.13697754 -57.7800293 142.1027832 C-57.70328979 140.47409302 -57.70328979 140.47409302 -57.625 138.8125 C-57.58479736 137.69641357 -57.54459473 136.58032715 -57.50317383 135.43041992 C-57.2892576 129.82391671 -56.95854132 124.28988326 -56.28515625 118.71875 C-54.77744431 106.62300423 -54.77744431 106.62300423 -59.76782227 95.98803711 C-61.88380509 93.69976706 -64.09887324 91.56488403 -66.41503906 89.48046875 C-68.78131118 87.27019855 -70.7430357 84.7851128 -72.75 82.25 C-74.89279249 79.57836476 -77.03804911 76.95780819 -79.33203125 74.4140625 C-83.44983509 69.72654499 -85.90085969 66.46892839 -85.76953125 60.10546875 C-84.55994208 56.79598365 -82.71464876 55.21448651 -80 53 C-77.39465553 51.99884516 -75.06225375 51.26958803 -72.375 50.625 C-71.61300293 50.41625244 -70.85100586 50.20750488 -70.06591797 49.99243164 C-65.15221752 48.6726281 -60.2506751 47.68052109 -55.234375 46.83203125 C-41.61590162 44.6792908 -41.61590162 44.6792908 -30.9921875 36.69921875 C-28.32654841 32.54182256 -26.25201132 28.149825 -24.25048828 23.64208984 C-22.20516533 19.32063631 -19.58287726 15.40989973 -16.9375 11.4375 C-16.48310547 10.72996582 -16.02871094 10.02243164 -15.56054688 9.29345703 C-11.41128836 2.87536881 -8.35113445 -0.98248641 0 0 Z " fill="#000000" transform="translate(402,34)"/>
</svg>
