<?xml version="1.0" encoding="UTF-8"?>
<svg version="1.1" xmlns="http://www.w3.org/2000/svg" width="512" height="512">
<path d="M0 0 C4.13732218 3.1680067 4.78758421 6.2617399 5.8125 11.25 C7.17811368 17.18615197 9.04552178 20.89429872 13.328125 25.22265625 C19.2155334 31.48146659 19.71422716 39.83257311 20.85424805 47.96435547 C21.74524667 54.07526682 23.2016735 59.45999329 26 65 C26.43119141 66.05380859 26.43119141 66.05380859 26.87109375 67.12890625 C28.32278892 69.53500309 29.40997292 69.9146965 32 71 C36.64450027 73.29847283 41.28001685 75.61276263 45.90478516 77.95068359 C47.83839078 78.91906357 49.78230507 79.86215399 51.73046875 80.80078125 C64.18236629 87.03389452 64.18236629 87.03389452 67 94 C67.76104207 97.50433324 68.37083087 100.98280875 68.90673828 104.52587891 C70.39717137 114.20845335 74.49524216 122.08718764 79.07861328 130.66113281 C79.81313721 132.03543457 79.81313721 132.03543457 80.5625 133.4375 C81.04960449 134.34725586 81.53670898 135.25701172 82.03857422 136.19433594 C85.61028309 142.975814 88.30425804 149.49351559 90 157 C90.185625 157.74894531 90.37125 158.49789062 90.5625 159.26953125 C92.29492411 170.08171388 91.73856504 181.06561883 88.5 191.5 C84.85013858 203.44020579 84.90468195 210.97111301 90.78393555 222.06982422 C91.51247252 223.41722247 92.24378768 224.76312269 92.97802734 226.10742188 C94.42096555 228.77958074 95.74421073 231.48509221 97 234.25 C97.391875 235.08015625 97.78375 235.9103125 98.1875 236.765625 C100.60870733 246.40389263 98.62307661 254.44380825 95 263.4375 C91.82721846 271.91506323 89.87612732 278.87464246 91 288 C92.62822379 303.34423939 92.62822379 303.34423939 89 309 C86.45729047 311.97683066 84.62206508 313.65821772 80.73828125 314.4765625 C74.61147094 314.84205511 70.60307861 313.03962958 65.3203125 310.125 C62.03481714 308.53203255 59.57985954 308.4384534 56 309 C51.70039349 310.78276367 49.26337158 313.81765464 46.4296875 317.37890625 C41.68126487 322.76304666 33.74706944 322.53706485 27 323 C18.14434274 323.11274564 11.34626613 321.86897235 4.65234375 315.91015625 C1.50853255 312.83791148 -1.42355034 309.76859955 -4.0625 306.25 C-7.91571704 301.77529634 -11.84751367 299.21457808 -17.76171875 298.625 C-22.49675378 298.76303645 -25.98116601 300.55212977 -30.0625 302.8125 C-44.06737953 310.28086874 -44.06737953 310.28086874 -51.125 310.4375 C-54.66748986 310.67983451 -56.70348437 310.8452962 -59.875 312.5 C-62.42280394 315.4974164 -64.57317721 318.64921552 -66.66796875 321.9765625 C-68 324 -68 324 -70 326 C-77.84340993 325.73288697 -85.00695843 323.45455176 -92.4375 321.0625 C-94.18256836 320.55106445 -94.18256836 320.55106445 -95.96289062 320.02929688 C-103.78150877 317.50815551 -108.49098039 314.30896477 -113.89868164 308.10717773 C-116.02615088 305.9737762 -117.06090206 305.34653483 -120 305 C-125.54235257 312.55775351 -125.25413931 321.80926653 -124.625 330.75 C-124.51642634 332.70302561 -124.40965042 334.65615201 -124.3046875 336.609375 C-124.22492676 338.00833008 -124.22492676 338.00833008 -124.14355469 339.43554688 C-122.95885371 360.59898071 -124.46073577 387.30384716 -139.25 403.9375 C-143.08836092 407.50228444 -146.77673269 408.85490924 -152 409 C-154.57634413 408.65195351 -157.05713209 408.1262362 -159.58984375 407.54296875 C-163.44645557 406.67413724 -166.02231139 406.42259359 -170 407 C-173.91462786 409.66078058 -177.08459685 413.06050729 -180.375 416.4375 C-184.46948747 418.87469493 -188.35551758 418.61879015 -193 418 C-195.08645993 417.33491715 -197.06257329 416.52574169 -199.0859375 415.69140625 C-202.50723282 414.45555059 -205.49789731 414.21294208 -209 415 C-210.8984387 415.95475416 -212.77172162 416.96029608 -214.625 418 C-222.26986325 422.12318132 -229.66393962 421.89834941 -238.0859375 420.48046875 C-244.50288912 419.4224459 -250.95719188 419.81582755 -257.375 420.6875 C-260.57225377 421.03712046 -261.8604243 421.05345452 -264.9375 419.875 C-268.05205369 417.04358755 -269.8122593 415.02077263 -270.21484375 410.6875 C-270.29706965 404.40178671 -269.71367374 398.1881158 -269.0234375 391.9453125 C-268.98918528 387.64095015 -270.09837545 385.15456899 -272.7265625 381.7890625 C-275.58127559 379.54257007 -277.81392224 379.05136031 -281.375 378.375 C-282.61894531 378.13136719 -283.86289062 377.88773437 -285.14453125 377.63671875 C-288.77982131 377.03636183 -292.40218345 376.60148877 -296.0625 376.1875 C-301.24025638 375.5257688 -305.15606553 374.16237507 -309.8125 371.8125 C-314.43476475 369.53502489 -317.8060508 368.04759522 -322.94140625 369.140625 C-329.80374118 372.00535685 -333.94639152 377.48353992 -336.96875 384.08984375 C-338.91627168 389.58569091 -339.98435891 395.26947225 -341 401 C-341.59917236 400.42100952 -341.59917236 400.42100952 -342.21044922 399.83032227 C-346.81096267 395.61198723 -351.35778976 393.22812496 -357.125 390.9375 C-364.72364654 387.91176636 -370.29080574 384.6983277 -374 377 C-374.5546875 373.984375 -374.5546875 373.984375 -374.875 370.75 C-375.59740261 365.27949815 -377.0357692 361.6332006 -379.875 356.96875 C-382.10826199 353.06054152 -382.44728715 349.86515816 -381.40234375 345.5078125 C-377.54010339 333.7037359 -370.08975289 321.6168921 -359.375 315 C-354.69683455 312.06623523 -352.54729293 308.80857403 -350 304 C-349.16280029 302.49046453 -348.30889431 300.99005794 -347.4375 299.5 C-347.06496094 298.8296875 -346.69242187 298.159375 -346.30859375 297.46875 C-345.87675781 296.9840625 -345.44492187 296.499375 -345 296 C-341 296 -341 296 -339.296875 297.53125 C-338.78640625 298.1809375 -338.2759375 298.830625 -337.75 299.5 C-337.22921875 300.1496875 -336.7084375 300.799375 -336.171875 301.46875 C-335.59179688 302.22671875 -335.59179688 302.22671875 -335 303 C-321.74126434 298.99516196 -311.94914304 289.91989226 -304.76953125 278.33203125 C-303.00888196 275.01672476 -301.58794227 271.6810193 -300.17285156 268.20996094 C-296.56481838 259.43124789 -293.31753526 254.06905583 -285 249 C-282.85091594 247.58826956 -280.70512039 246.17152137 -278.5625 244.75 C-277.57378906 244.12609375 -276.58507812 243.5021875 -275.56640625 242.859375 C-271.79669584 240.12819972 -270.29845755 238.02594782 -269 233.5625 C-268.33105374 226.17678723 -272.60375919 219.0814791 -275.56640625 212.54296875 C-280.02459381 202.5874672 -282.26616439 192.9981822 -283.85546875 182.2734375 C-285.44867924 171.73054749 -287.10873654 162.58097847 -291.71875 152.9140625 C-293.59083925 148.65620098 -294.63515577 144.65208682 -294 140 C-289.9399136 132.92759142 -283.12508771 130.80751135 -275.8125 128 C-268.44915672 125.05466269 -265.39680558 121.46569448 -261.72265625 114.53515625 C-257.80083974 108.76359409 -253.0665076 106.33496789 -246.625 104.125 C-238.18797287 100.97651835 -233.21925145 96.6666111 -227.5 89.875 C-215.38711799 75.80667516 -191.76531166 73.96943231 -174.43359375 71.26171875 C-167.07207288 70.05089342 -162.370565 68.70412675 -157.02734375 63.328125 C-155 62 -155 62 -152.10546875 62.1015625 C-148.79074748 63.06053847 -146.29448071 64.29107268 -143.375 66.125 C-142.45460937 66.68445313 -141.53421875 67.24390625 -140.5859375 67.8203125 C-134.23693898 73.17188527 -133.24253216 79.52438504 -132.22265625 87.30273438 C-131.71272479 90.61099338 -131.17534626 92.77058864 -129.125 95.453125 C-126.55058835 97.32714525 -124.55947323 97.62354771 -121.3984375 97.44140625 C-110.43745645 95.42415729 -102.52769209 89.01027941 -94.49609375 81.73046875 C-88.54399109 76.52348773 -82.86582546 73.23481546 -75.48193359 70.55834961 C-70.56376667 68.67473174 -68.43833766 66.64108714 -66 62 C-65.47448951 60.49455208 -64.99243375 58.97297768 -64.5625 57.4375 C-61.04963187 48.17248525 -51.9182488 41.38824995 -44.5 35.1875 C-38.67446484 30.16801373 -36.10360991 24.46235136 -33.5 17.3125 C-31.30961769 11.4759736 -29.56776091 7.79662246 -23.8125 4.8984375 C-16.68741116 1.80347703 -7.83589557 -1.11941365 0 0 Z " fill="#000000" transform="translate(397,45)"/>
</svg>
