<?xml version="1.0" encoding="UTF-8"?>
<svg version="1.1" xmlns="http://www.w3.org/2000/svg" width="512" height="512">
<path d="M0 0 C1.50892822 0.00616333 1.50892822 0.00616333 3.04833984 0.01245117 C9.47285687 0.0596828 15.89339131 0.16434644 22.3125 0.4375 C23.40268433 0.47109619 23.40268433 0.47109619 24.51489258 0.50537109 C28.82428245 0.73161534 31.82230572 1.35736358 35.1875 4.125 C40.25658372 14.96898921 35.90015845 26.32752572 32.25390625 36.80859375 C30.4267945 42.55219385 29.88175848 47.94792369 29.8125 53.9375 C29.79171387 55.01402832 29.79171387 55.01402832 29.77050781 56.11230469 C29.81271707 60.87750817 30.86185907 64.0089847 33.1875 68.125 C33.1875 68.785 33.1875 69.445 33.1875 70.125 C33.8475 70.125 34.5075 70.125 35.1875 70.125 C35.2803125 69.0421875 35.2803125 69.0421875 35.375 67.9375 C36.44985706 64.21684093 38.3117773 62.66633634 41.1875 60.125 C41.826875 59.526875 42.46625 58.92875 43.125 58.3125 C46.19161123 56.54687535 47.70687952 56.35926349 51.1875 57.125 C53.5361304 59.57504853 55.38268165 62.25777084 57.1875 65.125 C57.8475 64.795 58.5075 64.465 59.1875 64.125 C62.56572416 63.98124578 64.96140955 64.04963652 68.1875 65.125 C69.53209143 64.48134163 70.86479295 63.81250875 72.1875 63.125 C78.34397235 62.32454088 84.25220094 63.55347874 90.1875 65.125 C91.1775 63.64 91.1775 63.64 92.1875 62.125 C90.970625 62.0425 89.75375 61.96 88.5 61.875 C84.38053595 61.34911097 82.05842296 60.25691596 79.1875 57.125 C78.25 54.5625 78.25 54.5625 78.1875 52.125 C78.8475 51.135 79.5075 50.145 80.1875 49.125 C80.60689401 47.63141616 81.00110479 46.13061828 81.375 44.625 C82.60626246 40.78121111 82.90723541 40.29627281 86.5625 38.0625 C89.70669665 37.24934569 91.99460189 37.04270881 95.1875 37.125 C95.14109375 36.37734375 95.0946875 35.6296875 95.046875 34.859375 C94.75217571 26.81829425 94.75217571 26.81829425 96.875 23.4375 C99.56524094 21.91060649 101.14935565 22.01919398 104.1875 22.125 C104.2390625 21.50753906 104.290625 20.89007813 104.34375 20.25390625 C105.23501486 13.59980387 107.52197222 9.7483761 111.921875 4.7421875 C114.1875 3.125 114.1875 3.125 116.8359375 2.50390625 C122.00787786 3.46234275 125.74313468 6.28129119 130.0625 9.1875 C132.03435938 10.47908199 134.00704503 11.7694032 135.98046875 13.05859375 C137.00060059 13.73003418 138.02073242 14.40147461 139.07177734 15.09326172 C144.125245 18.3885883 149.2504324 21.56683134 154.375 24.75 C161.49262392 29.18729245 168.60055336 33.63887192 175.6875 38.125 C185.79268928 44.51942065 195.93619979 50.85206226 206.08056641 57.18408203 C209.19455923 59.12940994 212.30655719 61.07789038 215.41796875 63.02734375 C217.46613371 64.3099152 219.51431065 65.5924675 221.5625 66.875 C222.55523926 67.49729492 223.54797852 68.11958984 224.57080078 68.76074219 C229.17667697 71.64217955 233.79232795 74.50241082 238.44921875 77.30078125 C239.26406738 77.7915918 240.07891602 78.28240234 240.91845703 78.78808594 C242.40677442 79.68138806 243.89833431 80.56932476 245.39404297 81.45019531 C253.22210438 86.14816968 260.01237057 91.26582189 263.1875 100.125 C263.92140992 105.33117351 263.82017906 109.50459539 261.1875 114.125 C268.98931553 123.28622278 277.25366535 130.52694117 287.00634766 137.53759766 C318.10044433 160.16730625 318.10044433 160.16730625 321.1875 169.125 C321.33106178 175.81569692 319.58996176 182.22182086 317.625 188.5625 C317.36759033 189.40997803 317.11018066 190.25745605 316.8449707 191.13061523 C314.12933374 199.78435976 310.63682125 208.0833682 306.94018555 216.35766602 C303.94705621 223.38564632 305.02349028 230.47582554 306.73046875 237.7578125 C309.05203623 243.12293628 312.9969179 246.27173692 317.47265625 249.8828125 C320.1875 252.125 320.1875 252.125 322.1875 255.125 C322.1875 256.115 322.1875 257.105 322.1875 258.125 C322.93 258.16625 323.6725 258.2075 324.4375 258.25 C327.1875 259.125 327.1875 259.125 329.5 261.5625 C331.76096518 266.33564872 332.18212802 269.93405813 331.1875 275.125 C329.83935118 278.3373546 328.31033549 281.33066482 326.59765625 284.36328125 C324.4995926 288.4722314 324.03879046 292.24298363 324 296.8125 C323.98582031 297.57949219 323.97164063 298.34648437 323.95703125 299.13671875 C324.00588864 301.35737909 324.00588864 301.35737909 326.1875 303.125 C326.1875 304.115 326.1875 305.105 326.1875 306.125 C330.91886721 302.35912262 330.91886721 302.35912262 334.75 297.75 C336.1875 296.125 336.1875 296.125 339.375 295.875 C340.303125 295.9575 341.23125 296.04 342.1875 296.125 C344.23493052 299.19614577 344.78260336 302.28929111 344.70703125 305.96484375 C343.37997181 311.48261721 337.86146159 316.203774 333.1875 319.125 C329.4375 318.8125 329.4375 318.8125 326.1875 318.125 C326.06375 318.82625 325.94 319.5275 325.8125 320.25 C325.1875 323.125 325.1875 323.125 324.125 325.875 C322.04945665 333.07021695 322.92618156 338.05540246 326.23046875 344.640625 C328.01534253 349.27401162 328.02100559 354.20509028 328.1875 359.125 C328.80625 359.24875 329.425 359.3725 330.0625 359.5 C332.1875 360.125 332.1875 360.125 334.1875 362.125 C334.41796875 364.3671875 334.41796875 364.3671875 334.375 367 C334.36855469 367.86367188 334.36210937 368.72734375 334.35546875 369.6171875 C334.1875 372.125 334.1875 372.125 333.5625 374.2890625 C333.43875 374.89492188 333.315 375.50078125 333.1875 376.125 C334.16416161 377.47211947 335.14329506 378.81753735 336.13671875 380.15234375 C337.97469358 383.60281694 338.21121486 387.38445349 338.6953125 391.22265625 C339.3996718 395.37614004 340.31355143 398.25105143 343.3125 401.25 C345.74470024 402.83621755 347.37523731 403.57820089 350.0625 404.4375 C355.75965431 406.41208189 359.65297747 410.45626516 362.625 415.625 C363.68463626 420.3344945 363.95433462 423.73464694 361.578125 428.04296875 C358.94241768 431.44096398 356.11435061 433.67158991 352.5625 436 C351.89387939 436.44907715 351.22525879 436.8981543 350.53637695 437.36083984 C343.58007439 441.9748315 336.47577743 446.36289235 329.375 450.75 C328.5034024 451.28920074 328.5034024 451.28920074 327.61419678 451.83929443 C325.94707739 452.86820818 324.27633771 453.89124898 322.60546875 454.9140625 C321.63375732 455.50912598 320.6620459 456.10418945 319.66088867 456.71728516 C316.10184772 458.74289271 314.4065164 459.14238225 310.25 458.8125 C302.492003 458.69859792 295.82211282 463.42216389 289.5 467.5 C285.20917464 469.60493319 281.87893749 470.08835027 277.1875 469.125 C274.72386617 467.91097819 272.4919824 466.58054526 270.23046875 465.0234375 C268.24612085 463.90679175 268.24612085 463.90679175 266.25 464.578125 C263.30413527 466.78752355 261.24023457 469.61545543 259 472.5 C254.70392782 477.8170858 250.98002565 481.34952795 244.1875 483.125 C243.51847656 483.30675781 242.84945313 483.48851562 242.16015625 483.67578125 C235.81846375 485.11992905 232.20230594 484.44481944 226.6875 481.125 C225.17639037 480.14186843 223.67235211 479.14735719 222.1875 478.125 C221.71699219 478.47433594 221.24648438 478.82367188 220.76171875 479.18359375 C220.13910156 479.63863281 219.51648438 480.09367187 218.875 480.5625 C217.95267578 481.24119141 217.95267578 481.24119141 217.01171875 481.93359375 C212.79970537 484.68448043 208.67309473 484.14405204 203.875 483.875 C203.12798828 483.84792969 202.38097656 483.82085937 201.61132812 483.79296875 C195.88776038 483.4814137 191.52165313 482.36052694 187.24609375 478.265625 C186.71113281 477.64171875 186.17617188 477.0178125 185.625 476.375 C183.14581986 473.61017316 183.14581986 473.61017316 179.625 473 C176.77893957 474.31356635 173.97914706 475.6994781 171.1875 477.125 C165.00237753 479.23872305 157.63685714 478.32043506 151.1875 478.125 C150.25035156 478.11597656 149.31320313 478.10695313 148.34765625 478.09765625 C145.79222889 477.84866589 144.33460252 477.54716683 142.1875 476.125 C140.2789485 473.30483449 138.93839185 470.48119045 137.59765625 467.3515625 C135.93911545 463.55667412 133.81029382 460.28103609 131.484375 456.8671875 C127.12124604 447.6415353 127.61062759 436.72419734 127.15844727 426.72558594 C126.55439347 410.17159567 126.55439347 410.17159567 119.625 395.5 C119.02558594 394.70335937 118.42617187 393.90671875 117.80859375 393.0859375 C116.18698333 391.06151636 116.18698333 391.06151636 114.1875 389.125 C113.383125 390.3625 113.383125 390.3625 112.5625 391.625 C110.1875 394.125 110.1875 394.125 107.0625 394.5625 C104.1875 394.125 104.1875 394.125 102.1875 392.125 C100.15566038 391.7882787 98.11067027 391.52872215 96.0625 391.3125 C90.79522776 390.57981262 87.53839613 389.48989023 83.27734375 386.41796875 C79.80541751 384.26991719 75.95345331 383.29987825 72.07421875 382.09765625 C69.53884683 381.24338344 67.34532166 380.26862708 65 379 C62.19044731 377.48447365 59.7707969 376.77959544 56.625 376.25 C53.16346346 375.59289476 51.47801582 374.74046816 49 372.25 C44.85466308 368.23116398 39.89301372 367.50683713 34.42578125 366.1328125 C31.46125415 365.21019731 29.99576607 364.54257748 27.8125 362.4375 C25.01665285 359.97449179 24.59170338 359.86692273 21.125 359.6875 C17.1875 359.125 17.1875 359.125 14.3125 356.375 C12.1875 353.125 12.1875 353.125 11.38671875 350.47265625 C10.99097656 349.69792969 10.59523438 348.92320312 10.1875 348.125 C7.43015796 347.39237289 4.8562082 347.31155144 2.01171875 347.16796875 C-4.92815969 344.60510908 -7.66656797 334.46800682 -10.5703125 328.22998047 C-11.13117984 327.00793239 -11.69105705 325.78542946 -12.25 324.5625 C-12.68094971 323.62135345 -12.68094971 323.62135345 -13.12060547 322.66119385 C-14.5397548 319.55764566 -15.95057468 316.45059541 -17.35498047 313.34033203 C-18.48846137 310.83983899 -19.64411798 308.35339989 -20.81640625 305.87109375 C-24.7286698 297.05573229 -26.40332582 288.05537837 -27.99023438 278.57177734 C-29.90350597 265.77493919 -29.90350597 265.77493919 -36.5 255.0625 C-39.99450298 253.01854543 -42.6478262 252.47166934 -46.5625 251.77734375 C-51.07598928 250.46874529 -54.52409441 247.19596066 -56.9765625 243.25390625 C-58.94956424 238.22920555 -58.7371441 232.45551561 -56.76171875 227.4765625 C-55.03195383 224.32318575 -53.36055868 221.67305868 -50.8125 219.125 C-51.17519322 215.25407422 -52.63060891 212.24661465 -54.375 208.8125 C-57.26981059 202.59741674 -57.5523169 198.49700756 -56.0703125 191.7421875 C-55.75317985 187.29272032 -56.75669995 186.06829007 -59.3125 182.5 C-63.02040771 176.18473886 -63.33672375 171.1937614 -62.9375 163.9375 C-62.88787109 163.00405762 -62.83824219 162.07061523 -62.78710938 161.10888672 C-62.38353395 156.17235936 -62.38353395 156.17235936 -61.8125 154.125 C-58.45215362 151.88476908 -56.07601094 151.55180143 -52.1640625 150.98046875 C-48.8457986 149.77332623 -47.19629767 147.70532451 -44.8125 145.125 C-43.90371094 144.2278125 -42.99492188 143.330625 -42.05859375 142.40625 C-41.13175781 141.4884375 -40.20492187 140.570625 -39.25 139.625 C-38.32058594 138.7071875 -37.39117187 137.789375 -36.43359375 136.84375 C-34.03269387 134.35339782 -31.77579528 131.97463732 -29.8125 129.125 C-30.59965124 126.17929073 -30.59965124 126.17929073 -31.8125 123.125 C-31.60197368 116.91447368 -31.60197368 116.91447368 -28.9375 114.25 C-26.8125 113.125 -26.8125 113.125 -23.8125 112.125 C-22.46918346 110.13169158 -21.13655988 108.13115134 -19.8125 106.125 C-16.4125 103.125 -16.4125 103.125 -13.8125 103.125 C-14.1425 101.805 -14.4725 100.485 -14.8125 99.125 C-15.864375 99.0425 -16.91625 98.96 -18 98.875 C-22.76807607 97.93701782 -25.22652713 96.2396305 -28.125 92.375 C-28.97417122 89.5958942 -28.90316621 87.01471273 -28.796875 84.12890625 C-28.72742235 81.93895702 -28.72742235 81.93895702 -29.625 79.1875 C-29.92151592 74.34440661 -27.5663692 70.99072548 -24.8125 67.125 C-21.73763972 64.12701122 -18.86220013 62.51346862 -14.8125 61.125 C-12.46099984 48.51527767 -18.89073981 37.11854992 -24.45825195 26.11694336 C-27.39462767 20.06378715 -28.85884701 14.87997787 -27.8125 8.125 C-25.91816385 4.62776403 -24.6145221 3.48145427 -21 1.875 C-13.94147498 0.21417058 -7.22685056 -0.03551426 0 0 Z " fill="#000000" transform="translate(105.8125,13.875)"/>
<path d="M0 0 C4.07455265 2.52234212 5.15376793 6.183675 6.625 10.625 C7.15657066 12.95863289 7.61023929 15.29690244 8.0546875 17.6484375 C8.5436278 19.87981115 8.5436278 19.87981115 10.75 22 C13.74601197 26.19441676 13.26891773 30.63838133 12.625 35.625 C11.45255696 38.17378922 10.56202622 39.68797378 8.625 41.625 C4.30560247 42.13316442 2.20434053 41.99577794 -1.5 39.625 C-7.41061205 33.99885591 -10.26548891 27.62515892 -11.375 19.625 C-11.560625 18.531875 -11.74625 17.43875 -11.9375 16.3125 C-11.03076221 10.36833003 -7.78432917 5.51530474 -4.375 0.625 C-2.375 -0.375 -2.375 -0.375 0 0 Z " fill="#000000" transform="translate(426.375,223.375)"/>
<path d="M0 0 C4.15256725 1.71830369 6.4836112 3.61562031 8.625 7.5 C11.10008394 13.77021264 10.81752744 19.19189031 8.625 25.5 C7.28576263 28.36109801 6.31257077 29.97839459 3.8125 31.875 C0.75506649 32.74855243 -1.33069962 32.34204053 -4.375 31.5 C-6.01171875 30.3828125 -6.01171875 30.3828125 -7.375 28.5 C-7.921875 25.28515625 -7.921875 25.28515625 -8.125 21.5625 C-8.20234375 20.33660156 -8.2796875 19.11070312 -8.359375 17.84765625 C-8.3724934 15.03703924 -8.14598523 13.1425798 -7.375 10.5 C-7.16081224 8.17566615 -6.99860676 5.85292821 -6.8515625 3.5234375 C-5.90939283 -0.47692223 -3.64270723 -0.53966033 0 0 Z " fill="#000000" transform="translate(441.375,187.5)"/>
</svg>
